<svg id="_029-real_estate_agent" data-name="029-real estate agent" xmlns="http://www.w3.org/2000/svg" width="84.034" height="86.131" viewBox="0 0 84.034 86.131">
  <g id="Group_204" data-name="Group 204" transform="translate(24.332 72.574)">
    <path id="Path_620" data-name="Path 620" d="M21.358,56.428H44.975v5.289H21.358Z" transform="translate(-21.358 -56.428)" fill="#a4d7f4"/>
  </g>
  <g id="Group_205" data-name="Group 205" transform="translate(59.071 72.574)">
    <path id="Path_621" data-name="Path 621" d="M47.173,56.428H70.79v5.289H47.173Z" transform="translate(-47.173 -56.428)" fill="#a4d7f4"/>
  </g>
  <g id="Group_206" data-name="Group 206" transform="translate(41.435 1.346)">
    <path id="Path_622" data-name="Path 622" d="M58.21,9.379V22.311h-5.3a22.481,22.481,0,0,1-6.89-1.077A22.521,22.521,0,0,1,39.8,18.1l-5.733,5.073V12.312a5.867,5.867,0,0,1,5.881-5.867h9.528c2.072-.04,2.961-1.063,2.866-2.947A5.867,5.867,0,0,1,58.21,9.379Z" transform="translate(-34.068 -3.498)" fill="#a4d7f4"/>
    <path id="Path_623" data-name="Path 623" d="M48.815,64.589l-.568.979L44.215,72.5l-4.033-6.93-.568-.979L41.69,45.267h5.07Z" transform="translate(-32.15 10.942)" fill="#a4d7f4"/>
    <path id="Path_624" data-name="Path 624" d="M44.813,40.6l2.231,2.095L46.4,46.882h-5.07l-.666-4.189L42.894,40.6" transform="translate(-31.788 9.328)" fill="#a4d7f4"/>
  </g>
  <g id="Group_208" data-name="Group 208" transform="translate(3.218)">
    <path id="Path_625" data-name="Path 625" d="M12.684,30.475V40.95H23.27V30.475a5.293,5.293,0,0,0-5.293-5.293h0a5.293,5.293,0,0,0-5.293,5.293Z" transform="translate(-3.243 5.344)" fill="#a4d7f4"/>
    <g id="Group_207" data-name="Group 207">
      <path id="Path_626" data-name="Path 626" d="M71.969,51.7,61.106,46.3V38.034A13.211,13.211,0,0,0,64.3,29.4V9.722A7.227,7.227,0,0,0,57.082,2.5,1.357,1.357,0,0,0,55.734,3.92c.066,1.227-.4,1.5-1.514,1.52H44.687a7.3,7.3,0,0,0-7.225,7.217c0,1.712,0-6.2.007,16.739a13.264,13.264,0,0,0,3.191,8.655v8.326L29.838,51.721a16.907,16.907,0,0,0-9.48,15.243v13.39A1.345,1.345,0,0,0,21.7,81.7H46.067L49.71,87.96a1.346,1.346,0,0,0,2.326,0L55.676,81.7H80.06a1.345,1.345,0,0,0,1.346-1.346V66.944A16.954,16.954,0,0,0,71.969,51.7ZM52.871,52.9l4.638-4.107H60.07l3.473,1.727-4.252,8.387Zm-2-10.077A13.583,13.583,0,0,0,58.415,40.5v5.6H43.35V40.512A13.586,13.586,0,0,0,50.873,42.821Zm0,8.249-2.567-2.279h5.141Zm-9.023-2.279h2.4L48.876,52.9,42.457,58.9l-4.2-8.329Zm7.271,7.566c.022-.021,1.729-1.62,1.749-1.643l1.754,1.645-.363,2.348H49.5ZM61.6,9.724V21.311H57.647a21.064,21.064,0,0,1-12.323-3.96,1.347,1.347,0,0,0-1.677.085l-3.488,3.086V12.66a4.572,4.572,0,0,1,4.529-4.523h9.554c1.981-.039,3.567-.888,4.045-2.777A4.592,4.592,0,0,1,61.6,9.724ZM40.159,24.118l4.487-3.97a23.767,23.767,0,0,0,13,3.854h3.958V29.4a10.723,10.723,0,1,1-21.446,0V24.118ZM32.608,69.553A1.345,1.345,0,0,0,31.263,70.9v8.11H23.049V66.964a14.229,14.229,0,0,1,7.98-12.829l4.811-2.375,5.023,9.957a1.345,1.345,0,0,0,2.12.377l3.767-3.523.241,1.518-2.032,18.92h-11V70.9a1.345,1.345,0,0,0-1.346-1.346ZM50.873,84.608,47.657,79.08l1.9-17.681h2.651L54.087,79.08Zm27.842-5.6H70.5V70.9a1.346,1.346,0,1,0-2.691,0v8.11H56.786L54.773,60.087l.232-1.5,3.758,3.509a1.346,1.346,0,0,0,2.118-.375l5.071-10,4.814,2.394a14.276,14.276,0,0,1,7.948,12.833V79.008Z" transform="translate(-0.59 -2.498)" fill="#1a3668"/>
      <path id="Path_627" data-name="Path 627" d="M33.79,45.215a1.345,1.345,0,0,0,1.346-1.346V18.08a1.345,1.345,0,0,0-1.346-1.346H7.014A1.345,1.345,0,0,0,5.668,18.08V43.87a1.345,1.345,0,0,0,1.346,1.346ZM8.36,19.426H32.444v23.1h-5.4V33.4a6.638,6.638,0,1,0-13.277,0v9.128H8.36Zm8.1,23.1V33.4a3.947,3.947,0,1,1,7.894,0v9.128Z" transform="translate(-5.668 2.424)" fill="#1a3668"/>
    </g>
  </g>
  <g id="Group_209" data-name="Group 209" transform="translate(0 3.354)">
    <path id="Path_628" data-name="Path 628" d="M3.277,23.486H39.169L26.535,10.463,21.229,4.99Z" transform="translate(-3.277 -4.99)" fill="#dc1c2e"/>
  </g>
</svg>
