<?xml version="1.0" encoding="utf-8"?>
<!-- Generator: Adobe Illustrator 19.2.1, SVG Export Plug-In . SVG Version: 6.00 Build 0)  -->
<svg version="1.1" id="Ebene_1" xmlns="http://www.w3.org/2000/svg" xmlns:xlink="http://www.w3.org/1999/xlink" x="0px" y="0px"
	 width="1000px" height="512px" viewBox="0 0 1000 512" style="enable-background:new 0 0 1000 512;" xml:space="preserve">
<style type="text/css">
	.st0{fill:#DCEAF7;}
	.st1{filter:url(#Adobe_OpacityMaskFilter);}
	.st2{fill:#FFFFFF;}
	.st3{mask:url(#mask-2);fill:#FFFFFF;}
	.st4{filter:url(#Adobe_OpacityMaskFilter_1_);}
	.st5{mask:url(#mask-4);fill:#FFFFFF;}
	.st6{filter:url(#Adobe_OpacityMaskFilter_2_);}
	.st7{mask:url(#mask-6);fill:#FFFFFF;}
	.st8{filter:url(#Adobe_OpacityMaskFilter_3_);}
	.st9{mask:url(#mask-6_1_);fill:#FFFFFF;}
	.st10{filter:url(#Adobe_OpacityMaskFilter_4_);}
	.st11{mask:url(#mask-8);fill:#FFFFFF;}
</style>
<path id="Path-3952" class="st0" d="M257.6-10c-21.3,0,139.4,220.5,168.5,257.4s347.7,153.7,387.8,135.1
	c40.1-18.6,188.7-41.4,188.7-41.4V-10C1002.6-10,278.9-10,257.6-10z"/>
<defs>
	<filter id="Adobe_OpacityMaskFilter" filterUnits="userSpaceOnUse" x="232.2" y="73.7" width="294.9" height="187">
		<feColorMatrix  type="matrix" values="1 0 0 0 0  0 1 0 0 0  0 0 1 0 0  0 0 0 1 0"/>
	</filter>
</defs>
<mask maskUnits="userSpaceOnUse" x="232.2" y="73.7" width="294.9" height="187" id="mask-2">
	<g class="st1">
		<polyline id="path-1" class="st2" points="232.2,73.7 527.1,73.7 527.1,260.7 232.2,260.7 		"/>
	</g>
</mask>
<path id="Fill-1" class="st3" d="M475.3,122.6c-3.6,0-7.2,0.4-10.6,1.1c-3.7-28.2-27.8-50-57-50c-18.1,0-34.3,8.4-44.8,21.5
	c-7.3-3.6-15.5-5.7-24.2-5.7c-30.2,0-54.7,24.5-54.7,54.7c0,0.2,0,0.4,0,0.6c-2.4-0.4-4.8-0.6-7.2-0.6c-24.6,0-44.6,20-44.6,44.6
	c0,24.6,20,44.6,44.6,44.6c4.7,0,9.2-0.7,13.4-2.1c9.1,17.5,27.4,29.4,48.4,29.4c17.5,0,33-8.2,43-21c8.8,6.8,19.8,11,31.8,11
	c19.7,0,36.8-11,45.5-27.1c5.1,1.7,10.6,2.7,16.3,2.7c28.6,0,51.8-23.2,51.8-51.8S503.9,122.6,475.3,122.6"/>
<defs>
	<filter id="Adobe_OpacityMaskFilter_1_" filterUnits="userSpaceOnUse" x="54.8" y="-41.2" width="355.1" height="226">
		<feColorMatrix  type="matrix" values="1 0 0 0 0  0 1 0 0 0  0 0 1 0 0  0 0 0 1 0"/>
	</filter>
</defs>
<mask maskUnits="userSpaceOnUse" x="54.8" y="-41.2" width="355.1" height="226" id="mask-4">
	<g class="st4">
		<polyline id="path-3" class="st2" points="54.8,-9.8 409.9,-9.8 409.9,195.1 54.8,195.1 		"/>
	</g>
</mask>
<path id="Fill-1_1_" class="st5" d="M347.6,17.9c-4.4,0-8.7,0.5-12.8,1.3c-4.5-34.1-33.4-60.4-68.6-60.4c-21.8,0-41.3,10.2-54,26
	c-8.8-4.4-18.7-6.9-29.1-6.9c-36.4,0-65.8,29.6-65.8,66.1c0,0.3,0,0.5,0,0.8c-2.8-0.5-5.7-0.8-8.7-0.8c-29.7,0-53.7,24.1-53.7,53.9
	c0,29.8,24,53.9,53.7,53.9c5.6,0,11.1-0.9,16.2-2.5c11,21.1,33,35.5,58.3,35.5c21.1,0,39.8-10,51.8-25.4
	c10.6,8.3,23.8,13.2,38.3,13.2c23.7,0,44.3-13.3,54.8-32.8c6.2,2.1,12.8,3.2,19.6,3.2c34.4,0,62.4-28,62.4-62.6S382,17.9,347.6,17.9
	"/>
<defs>
	<filter id="Adobe_OpacityMaskFilter_2_" filterUnits="userSpaceOnUse" x="527.5" y="281.3" width="294.9" height="187">
		<feColorMatrix  type="matrix" values="1 0 0 0 0  0 1 0 0 0  0 0 1 0 0  0 0 0 1 0"/>
	</filter>
</defs>
<mask maskUnits="userSpaceOnUse" x="527.5" y="281.3" width="294.9" height="187" id="mask-6">
	<g class="st6">
		<polyline id="path-5" class="st2" points="527.5,281.3 822.4,281.3 822.4,468.3 527.5,468.3 		"/>
	</g>
</mask>
<path id="Fill-1_2_" class="st7" d="M770.6,330.2c-3.6,0-7.2,0.4-10.6,1.1c-3.7-28.2-27.8-50-57-50c-18.1,0-34.3,8.4-44.8,21.5
	c-7.3-3.6-15.5-5.7-24.2-5.7c-30.2,0-54.7,24.5-54.7,54.7c0,0.2,0,0.4,0,0.6c-2.4-0.4-4.8-0.6-7.2-0.6c-24.6,0-44.6,20-44.6,44.6
	c0,24.6,20,44.6,44.6,44.6c4.7,0,9.2-0.7,13.4-2.1c9.1,17.5,27.4,29.4,48.4,29.4c17.5,0,33-8.2,43-21c8.8,6.8,19.8,11,31.8,11
	c19.7,0,36.8-11,45.5-27.1c5.1,1.7,10.6,2.7,16.3,2.7c28.6,0,51.8-23.2,51.8-51.8C822.4,353.4,799.2,330.2,770.6,330.2"/>
<defs>
	<filter id="Adobe_OpacityMaskFilter_3_" filterUnits="userSpaceOnUse" x="325.5" y="208.3" width="294.9" height="187">
		<feColorMatrix  type="matrix" values="1 0 0 0 0  0 1 0 0 0  0 0 1 0 0  0 0 0 1 0"/>
	</filter>
</defs>
<mask maskUnits="userSpaceOnUse" x="325.5" y="208.3" width="294.9" height="187" id="mask-6_1_">
	<g class="st8">
		<polyline id="path-5_1_" class="st2" points="325.5,208.3 620.4,208.3 620.4,395.3 325.5,395.3 		"/>
	</g>
</mask>
<path id="Fill-1_4_" class="st9" d="M568.6,257.2c-3.6,0-7.2,0.4-10.6,1.1c-3.7-28.2-27.8-50-57-50c-18.1,0-34.3,8.4-44.8,21.5
	c-7.3-3.6-15.5-5.7-24.2-5.7c-30.2,0-54.7,24.5-54.7,54.7c0,0.2,0,0.4,0,0.6c-2.4-0.4-4.8-0.6-7.2-0.6c-24.6,0-44.6,20-44.6,44.6
	c0,24.6,20,44.6,44.6,44.6c4.7,0,9.2-0.7,13.4-2.1c9.1,17.5,27.4,29.4,48.4,29.4c17.5,0,33-8.2,43-21c8.8,6.8,19.8,11,31.8,11
	c19.7,0,36.8-11,45.5-27.1c5.1,1.7,10.6,2.7,16.3,2.7c28.6,0,51.8-23.2,51.8-51.8C620.4,280.4,597.2,257.2,568.6,257.2"/>
<defs>
	<filter id="Adobe_OpacityMaskFilter_4_" filterUnits="userSpaceOnUse" x="760.7" y="315" width="294.9" height="187">
		<feColorMatrix  type="matrix" values="1 0 0 0 0  0 1 0 0 0  0 0 1 0 0  0 0 0 1 0"/>
	</filter>
</defs>
<mask maskUnits="userSpaceOnUse" x="760.7" y="315" width="294.9" height="187" id="mask-8">
	<g class="st10">
		<polyline id="path-7" class="st2" points="760.7,315 1055.6,315 1055.6,502 760.7,502 		"/>
	</g>
</mask>
<path id="Fill-1_3_" class="st11" d="M1003.8,363.9c-3.6,0-7.2,0.4-10.6,1.1c-3.7-28.2-27.8-50-57-50c-18.1,0-34.3,8.4-44.8,21.5
	c-7.3-3.6-15.5-5.7-24.2-5.7c-30.2,0-54.7,24.5-54.7,54.7c0,0.2,0,0.4,0,0.6c-2.4-0.4-4.8-0.6-7.2-0.6c-24.6,0-44.6,20-44.6,44.6
	c0,24.6,20,44.6,44.6,44.6c4.7,0,9.2-0.7,13.4-2.1c9.1,17.5,27.4,29.4,48.4,29.4c17.5,0,33-8.2,43-21c8.8,6.8,19.8,11,31.8,11
	c19.7,0,36.8-11,45.5-27.1c5.1,1.7,10.6,2.7,16.3,2.7c28.6,0,51.8-23.2,51.8-51.8C1055.6,387.1,1032.4,363.9,1003.8,363.9"/>
</svg>
