<svg xmlns="http://www.w3.org/2000/svg" width="89.085" height="86.131" viewBox="0 0 89.085 86.131">
  <g id="_077-conversation" data-name="077-conversation" transform="translate(-2.5 -3.561)">
    <g id="Group_421" data-name="Group 421" transform="translate(5.218 3.561)">
      <path id="Path_944" data-name="Path 944" d="M4.452,6.879V20.267A3.317,3.317,0,0,0,7.77,23.585H23.779l4.96,4.944,4.944-4.944H38.61a3.317,3.317,0,0,0,3.318-3.318V6.879A3.317,3.317,0,0,0,38.61,3.561H7.77A3.317,3.317,0,0,0,4.452,6.879Z" transform="translate(-4.452 -3.561)" fill="#dc1c2e"/>
    </g>
    <g id="Group_422" data-name="Group 422" transform="translate(51.391 3.561)">
      <path id="Path_945" data-name="Path 945" d="M75.1,6.879V20.267a3.317,3.317,0,0,1-3.318,3.318H55.773l-4.96,4.944-4.944-4.944H40.942a3.317,3.317,0,0,1-3.318-3.318V6.879a3.317,3.317,0,0,1,3.318-3.318h30.84A3.317,3.317,0,0,1,75.1,6.879Z" transform="translate(-37.624 -3.561)" fill="#007dc3"/>
    </g>
    <g id="Group_423" data-name="Group 423" transform="translate(3.892 84.669)">
      <path id="Path_946" data-name="Path 946" d="M3.5,61.83H43.629v3.637H3.5Z" transform="translate(-3.5 -61.83)" fill="#a4d7f4"/>
    </g>
    <path id="Path_947" data-name="Path 947" d="M28.55,30.686v8.893H24.9a15.415,15.415,0,0,1-9.013-2.9l-3.942,3.489V32.7a4.034,4.034,0,0,1,4.044-4.035h6.551c1.425-.028,2.036-.731,1.971-2.027a4.034,4.034,0,0,1,4.035,4.044Z" transform="translate(3.704 9.047)" fill="#a4d7f4"/>
    <g id="Group_424" data-name="Group 424" transform="translate(50.064 84.669)">
      <path id="Path_948" data-name="Path 948" d="M36.671,61.83H76.8v3.637H36.671Z" transform="translate(-36.671 -61.83)" fill="#a4d7f4"/>
    </g>
    <path id="Path_949" data-name="Path 949" d="M61.721,30.686v8.893H58.075a15.415,15.415,0,0,1-9.013-2.9L45.12,40.171V32.7a4.034,4.034,0,0,1,4.044-4.035h6.551c1.425-.028,2.036-.731,1.971-2.027A4.034,4.034,0,0,1,61.721,30.686Z" transform="translate(16.705 9.047)" fill="#a4d7f4"/>
    <g id="Group_425" data-name="Group 425" transform="translate(2.5 34.297)">
      <path id="Path_950" data-name="Path 950" d="M38.664,59.527,31.452,55.94V50.715a9.549,9.549,0,0,0,2.194-6.11V31.077a5.509,5.509,0,0,0-5.428-5.435,1.481,1.481,0,0,0-1.012.438c-.663,1.106-.25.732-.424,1.484a1.023,1.023,0,0,1-.533.1H19.7a5.444,5.444,0,0,0-5.435,5.43c0,.14,0,12.259,0,11.51a9.576,9.576,0,0,0,2.194,6.121v5.266L9.278,59.539A12.09,12.09,0,0,0,2.5,70.438v9.207a1.392,1.392,0,0,0,1.392,1.392H44.019a1.392,1.392,0,0,0,1.392-1.392v-9.22A12.122,12.122,0,0,0,38.664,59.527ZM19.7,30.453c4-.479,8.34,1.187,9.638-1.774a2.733,2.733,0,0,1,1.527,2.4v7.5H28.607a14.027,14.027,0,0,1-8.2-2.635c-1.4-1.012-2.6,1.11-3.358,1.525V33.1A2.645,2.645,0,0,1,19.7,30.453Zm.018,8.375a16.807,16.807,0,0,0,8.893,2.535h2.255v3.243c0,6.423-8.073,9.266-11.991,4.667-2.579-2.783-1.611-5.856-1.823-8.086Zm-.472,14.257c.019.011.041.018.06.028a9.682,9.682,0,0,0,9.366-.036v2.548H19.243ZM42.627,78.253H37.913v-5.11a1.392,1.392,0,0,0-2.784,0v5.11H12.782v-5.11a1.392,1.392,0,0,0-2.784,0v5.11H5.284V70.438a9.321,9.321,0,0,1,5.225-8.4l7.344-3.627H30.165l7.255,3.609a9.353,9.353,0,0,1,5.208,8.407Z" transform="translate(-2.5 -25.642)" fill="#1a3668"/>
      <path id="Path_951" data-name="Path 951" d="M71.836,59.527,64.623,55.94V50.715a9.549,9.549,0,0,0,2.194-6.11V31.077a5.47,5.47,0,0,0-5.426-5.435,1.4,1.4,0,0,0-1.009.432c-.509.535-.323,1.017-.428,1.491-.359.18-.573.086-7.088.1a5.444,5.444,0,0,0-5.435,5.43v7.467c0,.01,0,.018,0,.028v4.015a9.587,9.587,0,0,0,2.194,6.122v5.265l-7.18,3.546a12.089,12.089,0,0,0-6.779,10.9v9.207a1.392,1.392,0,0,0,1.392,1.392H77.192a1.392,1.392,0,0,0,1.392-1.392v-9.22a12.125,12.125,0,0,0-6.748-10.9ZM52.868,30.453c5.409-.139,8.54.736,9.638-1.774,2.638,1.234,1.114,4.849,1.528,9.9H61.78c-6.845,0-8.171-4.108-9.937-2.547L50.22,37.469c.184-3.571-.482-4.985.775-6.243A2.648,2.648,0,0,1,52.868,30.453Zm.018,8.375a16.794,16.794,0,0,0,8.894,2.535h2.254v3.243a6.907,6.907,0,1,1-13.814,0V41.187Zm-.472,14.257A9.689,9.689,0,0,0,57.121,54.3a10.044,10.044,0,0,0,4.718-1.226v2.548H52.414v-2.54ZM75.8,78.253H71.086v-5.11a1.392,1.392,0,0,0-2.784,0v5.11H45.953v-5.11a1.392,1.392,0,0,0-2.784,0v5.11H38.455V70.438a9.32,9.32,0,0,1,5.227-8.4l7.344-3.627h12.31l7.256,3.609A9.353,9.353,0,0,1,75.8,70.425Z" transform="translate(10.501 -25.642)" fill="#1a3668"/>
    </g>
  </g>
</svg>
