<svg xmlns="http://www.w3.org/2000/svg" width="75.403" height="80.54" viewBox="0 0 75.403 80.54">
  <g id="_051-loan" data-name="051-loan" transform="translate(0 0)">
    <g id="Group_302" data-name="Group 302" transform="translate(40.476 28.496)">
      <path id="Path_768" data-name="Path 768" d="M46.772,30.34V43.282h-10.1V30.34a5.051,5.051,0,0,1,5.051-5.051h0A5.051,5.051,0,0,1,46.772,30.34Z" transform="translate(-36.671 -25.289)" fill="#dc1c2e"/>
    </g>
    <g id="Group_304" data-name="Group 304" transform="translate(1.278 45.69)">
      <g id="Group_303" data-name="Group 303" transform="translate(20.335 13.365)">
        <path id="Path_769" data-name="Path 769" d="M74.175,51.221a3.36,3.36,0,0,1-1.7,1.795L44.8,68.783a4.739,4.739,0,0,1-3.905.352L21.914,62.379l5.215-1.261,12.553,4.475a4.739,4.739,0,0,0,3.905-.352L71.264,49.475a3.164,3.164,0,0,0,.485-.279A3.306,3.306,0,0,1,74.1,51.051C74.126,51.112,74.15,51.161,74.175,51.221Z" transform="translate(-21.914 -49.196)" fill="#a4d7f4"/>
      </g>
      <path id="Path_770" data-name="Path 770" d="M18.91,41.087V67.974a2.346,2.346,0,0,1-2.346,2.346H8.352a2.346,2.346,0,0,1-2.346-2.346V41.087A2.346,2.346,0,0,1,8.352,38.74h8.212A2.346,2.346,0,0,1,18.91,41.087Z" transform="translate(-6.006 -38.74)" fill="#a4d7f4"/>
    </g>
    <g id="Group_306" data-name="Group 306" transform="translate(0 0)">
      <path id="Path_771" data-name="Path 771" d="M68.853,24.488a3.552,3.552,0,0,1-4.972.767L60.6,22.865,45.7,11.948,30.8,22.865l-3.285,2.39a3.545,3.545,0,0,1-4.18-5.727l2.978-2.173V4h8.27v7.3l8.833-6.455.192-.141a3.47,3.47,0,0,1,4.18,0l7.158,5.228,13.115,9.6a3.557,3.557,0,0,1,.793,4.96Z" transform="translate(-0.313 -2.719)" fill="#a4d7f4"/>
      <g id="Group_305" data-name="Group 305">
        <path id="Path_772" data-name="Path 772" d="M79.965,51.175A4.652,4.652,0,0,0,73.875,48.9L57.926,53.888A4.73,4.73,0,0,0,53.147,48.5H42.477c-7.9-2.626-10.785-4.671-16.535-4.671H20.467v-2.46a3.63,3.63,0,0,0-3.625-3.625H8.63a3.629,3.629,0,0,0-3.624,3.625V68.252A3.629,3.629,0,0,0,8.63,71.877h8.211a3.63,3.63,0,0,0,3.625-3.625V66.106h2.879c1.722,0,.745.027,21.834,7.424a6,6,0,0,0,4.958-.448l27.587-15.72a4.654,4.654,0,0,0,2.24-6.187ZM16.842,69.32H8.63a1.07,1.07,0,0,1-1.067-1.069V41.365A1.07,1.07,0,0,1,8.63,40.3h8.211a1.07,1.07,0,0,1,1.069,1.069V68.252A1.07,1.07,0,0,1,16.842,69.32ZM76.549,55.093,48.871,70.861a3.445,3.445,0,0,1-2.842.257c-20.566-7.168-20.2-7.569-22.683-7.569H20.467V46.382h5.475c5.142,0,7.711,1.854,15.87,4.594a1.288,1.288,0,0,0,.439.077h10.9a2.238,2.238,0,0,1,2.3,2.225,2.1,2.1,0,0,1-2.1,1.965h-11.7a5.978,5.978,0,0,0-5.971,5.971v.754a1.278,1.278,0,1,0,2.557,0v-.754A3.418,3.418,0,0,1,41.643,57.8h11.7c1.212,0,21.4-6.492,21.526-6.55a2.1,2.1,0,1,1,1.675,3.844Z" transform="translate(-5.006 6.672)" fill="#1a3668"/>
        <path id="Path_773" data-name="Path 773" d="M28.545,26.567l1.252-.916V49.486a1.278,1.278,0,0,0,1.278,1.278h29.8a1.278,1.278,0,0,0,1.278-1.278V25.651l1.256.919a4.831,4.831,0,0,0,6.74-1.032.211.211,0,0,0,.014-.017,4.832,4.832,0,0,0-1.07-6.745L48.834,3.957a4.775,4.775,0,0,0-5.7-.01L36.139,9.056V4.275A1.278,1.278,0,0,0,34.86,3H26.59a1.278,1.278,0,0,0-1.278,1.278V16.985l-2.45,1.788a4.823,4.823,0,0,0,5.684,7.795ZM59.6,48.208H32.354V23.78l13.628-9.97L59.6,23.779V48.208ZM24.366,20.839l2.979-2.173a1.278,1.278,0,0,0,.524-1.032V5.554h5.714v6.021a1.278,1.278,0,0,0,2.032,1.032L44.655,6a2.188,2.188,0,0,1,2.656.011L67.589,20.842A2.277,2.277,0,0,1,68.106,24a2.325,2.325,0,0,1-3.194.5l-18.174-13.3a1.277,1.277,0,0,0-1.51,0L27.037,24.5a2.267,2.267,0,0,1-2.671-3.663Z" transform="translate(-0.591 -2.997)" fill="#1a3668"/>
      </g>
    </g>
  </g>
</svg>
