<svg xmlns="http://www.w3.org/2000/svg" width="79.982" height="80.762" viewBox="0 0 79.982 80.762">
  <g id="_083-search" data-name="083-search" transform="translate(-3.304 -3)">
    <g id="Group_456" data-name="Group 456" transform="translate(25.701 34.124)">
      <path id="Path_998" data-name="Path 998" d="M49.344,52.2a17.215,17.215,0,0,1-1.7,1.981,15.679,15.679,0,0,1-1.967,1.684A17.636,17.636,0,0,1,22.7,54.178a16.2,16.2,0,0,1-1.925-2.292,17.632,17.632,0,0,0,20.659-.269A15.677,15.677,0,0,0,43.4,49.933a17.213,17.213,0,0,0,1.7-1.981,17.677,17.677,0,0,0,.241-20.673,18.743,18.743,0,0,1,2.306,1.953,17.651,17.651,0,0,1,1.7,22.966Z" transform="translate(-20.775 -27.279)" fill="#a4d7f4"/>
    </g>
    <g id="Group_457" data-name="Group 457" transform="translate(3.304 3)">
      <path id="Path_999" data-name="Path 999" d="M51.99,53.029a18.911,18.911,0,1,0-5.473,5.483L49.8,61.791a1.281,1.281,0,0,0,1.813,0l3.666-3.666a1.281,1.281,0,0,0,0-1.813ZM24.6,54.262a16.358,16.358,0,1,1,23.131,0,16.344,16.344,0,0,1-23.131,0Zm26.1,4.81-2.108-2.109c.071-.062.756-.688.956-.889.08-.08.884-.951.9-.964l2.109,2.109Z" transform="translate(0.625 2.856)" fill="#1a3668"/>
      <path id="Path_1000" data-name="Path 1000" d="M82.779,34.18l-11.1-8.439V4.282A1.281,1.281,0,0,0,70.4,3H57.963a1.281,1.281,0,0,0-1.282,1.282v10.08L44.065,4.775a1.285,1.285,0,0,0-1.552,0l-38.7,29.4a1.282,1.282,0,0,0,1.55,2.043l6.506-4.937V75.612a1.281,1.281,0,0,0,1.282,1.282H53.265a1.282,1.282,0,1,0,0-2.564H14.432V29.355L43.289,7.405l13.9,10.561a1.282,1.282,0,0,0,2.058-1.02V5.564h9.875V26.37a1.284,1.284,0,0,0,.5,1.015l2.544,1.963v37.8a1.282,1.282,0,0,0,2.564,0V31.288l6.5,4.935a1.282,1.282,0,1,0,1.55-2.043Z" transform="translate(-3.304 -3)" fill="#1a3668"/>
      <path id="Path_1001" data-name="Path 1001" d="M44.352,33.681a1.281,1.281,0,0,0-1.813,0L30.245,45.974l-4.191-4.191A1.282,1.282,0,0,0,24.241,43.6l5.1,5.1a1.281,1.281,0,0,0,1.813,0l13.2-13.2A1.281,1.281,0,0,0,44.352,33.681Z" transform="translate(2.493 5.544)" fill="#1a3668"/>
    </g>
    <g id="Group_458" data-name="Group 458" transform="translate(51.935 60.38)">
      <path id="Path_1002" data-name="Path 1002" d="M47.466,47.76,62.63,60.9a5.849,5.849,0,0,1,.279,8.533h0a5.849,5.849,0,0,1-8.533-.279L41.24,53.986Z" transform="translate(-41.24 -47.76)" fill="#dc1c2e"/>
    </g>
  </g>
</svg>
