<svg id="Group_537" data-name="Group 537" xmlns="http://www.w3.org/2000/svg" xmlns:xlink="http://www.w3.org/1999/xlink" width="76.701" height="87.904" viewBox="0 0 76.701 87.904">
  <defs>
    <clipPath id="clip-path">
      <rect id="Rectangle_148" data-name="Rectangle 148" width="68.46" height="87.904" fill="none"/>
    </clipPath>
    <clipPath id="clip-path-2">
      <path id="Path_1042" data-name="Path 1042" d="M65.764,59.67c-8.559-1.54-12.686,2.948-13.148,3.308A11.359,11.359,0,0,0,42.011,67.75c-2.9,9.635-.492,19.5,1.311,24.176.021.064.052.135.075.2a11.933,11.933,0,0,1,8.7-3.775c.1,0,4.3-4.387,12.659-3.622a22.54,22.54,0,0,1,10.136-2.272c6.574.352,9.675,1.993,10.135,2.272,8.364-.765,12.559,3.622,12.66,3.622a11.932,11.932,0,0,1,8.7,3.778c.023-.067.055-.138.076-.2a42.3,42.3,0,0,0,2.662-14.572v-.038a33.224,33.224,0,0,0-1.351-9.566,11.359,11.359,0,0,0-10.606-4.772c-.462-.36-4.589-4.848-13.148-3.308-1.172-1.228-5.485-2.539-9.079-2.585-3.593.045-8,1.357-9.171,2.585" transform="translate(-40.66 -57.085)" fill="none"/>
    </clipPath>
    <linearGradient id="linear-gradient" x1="-0.096" y1="2.178" x2="-0.093" y2="2.178" gradientUnits="objectBoundingBox">
      <stop offset="0" stop-color="#f2f2f2"/>
      <stop offset="0.039" stop-color="#f5f5f5"/>
      <stop offset="0.173" stop-color="#fdfdfd"/>
      <stop offset="0.5" stop-color="#fff"/>
      <stop offset="0.827" stop-color="#fdfdfd"/>
      <stop offset="0.961" stop-color="#f5f5f5"/>
      <stop offset="1" stop-color="#f2f2f2"/>
    </linearGradient>
    <clipPath id="clip-path-3">
      <rect id="Rectangle_150" data-name="Rectangle 150" width="76.701" height="87.904" fill="none"/>
    </clipPath>
  </defs>
  <g id="Group_501" data-name="Group 501" transform="translate(0 0)">
    <g id="Group_486" data-name="Group 486" transform="translate(8.241)">
      <g id="Group_485" data-name="Group 485" clip-path="url(#clip-path)">
        <path id="Path_1039" data-name="Path 1039" d="M197.792,407.556v.525a.016.016,0,0,1-.017.017h-.451L196,412.842h-4.721l-1.323-4.744h-.435a.017.017,0,0,1-.017-.017v-.525a.017.017,0,0,1,.017-.017h8.252a.016.016,0,0,1,.017.017" transform="translate(-159.337 -324.937)" fill="#646363"/>
        <path id="Path_1040" data-name="Path 1040" d="M89.809,224.328c7.351-7.11,24.536-24.479,27.341-32.386a11.932,11.932,0,0,0-8.7-3.778c-.1,0-4.3-4.387-12.66-3.622-.461-.279-3.562-1.919-10.135-2.272a22.536,22.536,0,0,0-10.136,2.272c-8.364-.765-12.558,3.622-12.659,3.622a11.932,11.932,0,0,0-8.7,3.775c2.8,7.907,19.988,25.278,27.339,32.389Z" transform="translate(-51.429 -145.327)" fill="#004997"/>
        <path id="Path_1041" data-name="Path 1041" d="M71.08,14.155c1.173-1.228,5.578-2.54,9.171-2.585,3.594.045,7.906,1.357,9.079,2.585,8.56-1.54,12.686,2.948,13.148,3.308a11.358,11.358,0,0,1,10.606,4.772,27.829,27.829,0,0,0-2.615-6.06C106.314,9.074,101.1,6.089,99.814,6.1a15.314,15.314,0,0,0-12.2-4.083C85.175-.049,81.013-.02,80.2.006,79.4-.02,75.235-.049,72.79,2.015A15.312,15.312,0,0,0,60.595,6.1c-1.284-.009-6.5,2.977-10.653,10.077a27.81,27.81,0,0,0-2.615,6.06,11.358,11.358,0,0,1,10.606-4.772c.462-.36,4.589-4.847,13.148-3.308" transform="translate(-45.975 0)" fill="#db0720"/>
      </g>
    </g>
    <g id="Group_488" data-name="Group 488" transform="translate(8.241 11.57)">
      <g id="Group_487" data-name="Group 487" clip-path="url(#clip-path-2)">
        <rect id="Rectangle_149" data-name="Rectangle 149" width="70.012" height="35.045" transform="translate(-1.552 0)" fill="url(#linear-gradient)"/>
      </g>
    </g>
    <g id="Group_490" data-name="Group 490">
      <g id="Group_489" data-name="Group 489" clip-path="url(#clip-path-3)">
        <path id="Path_1043" data-name="Path 1043" d="M64.285,215.995c6.242,15.406,17.2,31.462,17.221,31.5-7.351-7.11-24.537-24.482-27.339-32.389a11.932,11.932,0,0,1,8.7-3.775,28.939,28.939,0,0,0,1.422,4.665m52.865-.887a11.932,11.932,0,0,0-8.7-3.778,28.977,28.977,0,0,1-1.422,4.665c-6.243,15.406-17.2,31.464-17.221,31.5,7.351-7.11,24.536-24.479,27.341-32.386" transform="translate(-43.188 -168.493)" fill="#00346e"/>
        <path id="Path_1044" data-name="Path 1044" d="M90.7,108.629c0-.022,0-.032,0-.054a2.29,2.29,0,0,0-.913-1.944,3.115,3.115,0,0,0-2.68-.075c-1.215.4-2.426.844-3.615,1.319q.257,4.664.512,9.328c.8-.316,1.2-.467,2-.758-.062-1.218-.092-1.827-.153-3.045.464-.167.7-.249,1.163-.408.755.982,1.131,1.478,1.881,2.482.932-.29,1.4-.427,2.339-.684q-1.078-1.45-2.183-2.882a3.9,3.9,0,0,0,1.648-3.281m-2.08.654a.1.1,0,0,0,0,.013,1.872,1.872,0,0,1-1.451,1.844c-.565.19-.846.288-1.408.491-.054-1.087-.082-1.63-.137-2.717.549-.2.824-.294,1.375-.48,1.018-.344,1.581-.038,1.62.848m32.128-5.53q-1.905,4.48-3.734,8.989c.847.092,1.269.145,2.114.263.3-.772.45-1.156.751-1.924,1.319.2,1.976.313,3.287.575.264.868.4,1.3.657,2.171.858.181,1.286.278,2.141.487q-1.564-5.118-3.213-10.209c-.8-.152-1.2-.223-2-.351m1.831,6c-.806-.153-1.21-.224-2.019-.353.434-1.087.652-1.629,1.09-2.708.374,1.222.56,1.835.928,3.062m12.467,7.455c-.909-.36-1.365-.531-2.283-.858q-.762-1.863-1.548-3.717c-.747,1.03-1.12,1.551-1.862,2.6-.908-.271-1.363-.4-2.277-.638q1.5-1.995,3.039-3.957-1.254-2.709-2.562-5.392c.955.252,1.43.386,2.378.672q.748,1.731,1.475,3.473c.705-.973,1.059-1.455,1.768-2.41.914.324,1.37.495,2.276.852q-1.5,1.76-2.961,3.554,1.3,2.9,2.557,5.817m-36.759-5.782c-.365.791-.547,1.189-.908,1.986-1.3.228-2.609.5-3.9.809q-.161-4.694-.322-9.389c2.131-.484,4.262-.888,6.423-1.217.015.729.022,1.094.038,1.824-1.446.221-2.874.469-4.31.749.023.773.035,1.16.058,1.934,1.248-.261,2.511-.485,3.773-.67.016.729.024,1.094.04,1.824-1.257.184-2.515.408-3.759.668.024.8.036,1.2.06,2,1.118-.23,1.679-.334,2.8-.518m17.177-8.263q-.058,4.711-.117,9.421c-.824-.07-1.236-.1-2.061-.143q.023-2.931.047-5.862-1.153,1.414-2.278,2.852l-.089,0-.011-.02q-1.1-1.462-2.235-2.9,0,2.919.01,5.837c-.82.009-1.231.02-2.05.054q-.016-2.658-.032-5.317,1.077-2.09,2.182-4.164h.025q1.108,1.523,2.19,3.068,1.076-1.5,2.179-2.974c.9.047,1.346.078,2.242.153" transform="translate(-66.568 -82.054)" fill="#004997"/>
      </g>
    </g>
    <g id="Group_492" data-name="Group 492" transform="translate(8.241)">
      <g id="Group_491" data-name="Group 491" clip-path="url(#clip-path)">
        <path id="Path_1045" data-name="Path 1045" d="M164.023,112.712q2.4-4.966,4.932-9.863c-1.044.041-1.566.071-2.609.15q-2.5,4.989-4.866,10.045c1.015-.151,1.524-.217,2.542-.332" transform="translate(-136.993 -82.003)" fill="#db0720"/>
        <path id="Path_1046" data-name="Path 1046" d="M197.776,408.1h-8.252a.017.017,0,0,1-.017-.017v-.525a.016.016,0,0,1,.017-.017h8.252a.016.016,0,0,1,.017.017v.525a.016.016,0,0,1-.017.017m-4.174,4.745H196l1.284-4.6H193.6Z" transform="translate(-159.338 -324.936)" fill="#646363"/>
        <path id="Path_1047" data-name="Path 1047" d="M199.1,410.293h-7.367l1.323,4.745h2.32v-4.6h3.684Z" transform="translate(-161.114 -327.133)" fill="#3c3c3b"/>
      </g>
    </g>
    <g id="Group_494" data-name="Group 494">
      <g id="Group_493" data-name="Group 493" clip-path="url(#clip-path-3)">
        <path id="Path_1048" data-name="Path 1048" d="M179.8,184.542c-.461-.279-3.562-1.919-10.135-2.272a22.537,22.537,0,0,0-10.137,2.272c.412,12.969,2.5,27.408,8.266,39.787h3.741c5.765-12.38,7.853-26.818,8.265-39.787" transform="translate(-127.19 -145.327)" fill="#004997"/>
        <path id="Path_1049" data-name="Path 1049" d="M117.993,232.915h-2.279s-10.973-16.077-17.222-31.5a28.956,28.956,0,0,1-1.422-4.666c.1,0,4.3-4.386,12.659-3.622.412,12.969,2.5,27.408,8.265,39.787" transform="translate(-77.395 -153.912)" fill="#003f83"/>
      </g>
    </g>
    <g id="Group_496" data-name="Group 496" transform="translate(8.241)">
      <g id="Group_495" data-name="Group 495" clip-path="url(#clip-path)">
        <path id="Path_1050" data-name="Path 1050" d="M218.764,232.915c5.765-12.38,7.854-26.818,8.266-39.787,8.363-.765,12.558,3.622,12.659,3.622a28.981,28.981,0,0,1-1.422,4.666c-6.25,15.423-17.223,31.5-17.223,31.5Z" transform="translate(-182.665 -153.912)" fill="#003f83"/>
        <path id="Path_1051" data-name="Path 1051" d="M182.771,14.155c-.819-6.9-1.711-12.141-1.711-12.141C178.616-.049,174.455-.02,173.646.006c-.809-.026-4.97-.056-7.415,2.008,0,0-.891,5.245-1.711,12.141,1.173-1.228,5.578-2.54,9.171-2.585,3.594.045,7.907,1.357,9.079,2.585" transform="translate(-139.416 0)" fill="#db0720"/>
      </g>
    </g>
    <g id="Group_498" data-name="Group 498">
      <g id="Group_497" data-name="Group 497" clip-path="url(#clip-path-3)">
        <path id="Path_1052" data-name="Path 1052" d="M102.316,13.631S100.889,18.542,99.653,25c.462-.36,4.589-4.847,13.148-3.308.82-6.9,1.711-12.141,1.711-12.141a15.313,15.313,0,0,0-12.2,4.083" transform="translate(-79.455 -7.534)" fill="#c60b1b"/>
        <path id="Path_1053" data-name="Path 1053" d="M258.317,13.631S259.744,18.542,260.98,25c-.462-.36-4.589-4.847-13.148-3.308-.819-6.9-1.711-12.141-1.711-12.141a15.314,15.314,0,0,1,12.2,4.083" transform="translate(-196.236 -7.534)" fill="#c60b1b"/>
        <path id="Path_1054" data-name="Path 1054" d="M47.326,46.219a27.8,27.8,0,0,1,2.616-6.06c4.154-7.1,9.369-10.086,10.653-10.078,0,0-1.427,4.912-2.663,11.366a11.358,11.358,0,0,0-10.606,4.772m65.757,0a27.819,27.819,0,0,0-2.616-6.06c-4.154-7.1-9.37-10.086-10.653-10.078,0,0,1.427,4.912,2.663,11.366a11.358,11.358,0,0,1,10.606,4.772" transform="translate(-37.734 -23.984)" fill="#ad0e16"/>
      </g>
    </g>
  </g>
</svg>
