<svg xmlns="http://www.w3.org/2000/svg" width="76.883" height="83.564" viewBox="0 0 76.883 83.564">
  <g id="_058-house_key" data-name="058-house key" transform="translate(-5.059 -2.5)">
    <g id="Group_332" data-name="Group 332" transform="translate(58.259 10.494)">
      <path id="Path_810" data-name="Path 810" d="M68.183,20.752A12.057,12.057,0,0,1,63.1,30.61,12.135,12.135,0,0,0,45.8,14.237a12.142,12.142,0,0,1,22.379,6.515Z" transform="translate(-45.803 -8.622)" fill="#a4d7f4"/>
    </g>
    <g id="Group_333" data-name="Group 333" transform="translate(6.371 78.873)">
      <path id="Path_811" data-name="Path 811" d="M39.4,60.992v2.833a3.065,3.065,0,0,1-3.042,3.055H9.106a3.065,3.065,0,0,1-3.042-3.055V60.992h11.7v5.876h9.78V60.992Z" transform="translate(-6.063 -60.992)" fill="#a4d7f4"/>
    </g>
    <g id="Group_334" data-name="Group 334" transform="translate(64.168 15.27)">
      <path id="Path_812" data-name="Path 812" d="M58.984,16.6a4.327,4.327,0,1,1-4.318-4.318A4.325,4.325,0,0,1,58.984,16.6Z" transform="translate(-50.329 -12.281)" fill="#dc1c2e"/>
    </g>
    <g id="Group_335" data-name="Group 335" transform="translate(5.059 2.5)">
      <path id="Path_813" data-name="Path 813" d="M65.9,9.247v-.8A5.954,5.954,0,0,0,59.955,2.5H23.774a5.954,5.954,0,0,0-5.947,5.948V24.114A4.792,4.792,0,0,0,22.614,28.9h14.8a4.013,4.013,0,0,1,0,8.025h-14.8a4.792,4.792,0,0,0-4.787,4.788v3.818a1.306,1.306,0,1,0,2.611,0V41.715a2.178,2.178,0,0,1,2.175-2.177h14.8a6.624,6.624,0,0,0,0-13.248h-14.8a2.178,2.178,0,0,1-2.175-2.177V8.448a3.34,3.34,0,0,1,3.336-3.337H59.955A3.34,3.34,0,0,1,63.29,8.448v.8a13.444,13.444,0,0,0-3.481,25.942l.17,3.336-.991,2.4a1.3,1.3,0,0,0,.122,1.223l1.308,1.957-1.334,1.938a1.306,1.306,0,0,0-.01,1.466l1.308,1.956L59.05,51.4a1.306,1.306,0,0,0-.01,1.468l1.308,1.955-1.334,1.937a1.3,1.3,0,0,0,.158,1.67l4.621,4.557a1.3,1.3,0,0,0,.917.376c.032,0,.065,0,.1,0a1.3,1.3,0,0,0,.947-.519l3.413-4.551a1.3,1.3,0,0,0,.261-.783V35.172A13.444,13.444,0,0,0,65.9,9.247ZM67.744,32.99a1.306,1.306,0,0,0-.927,1.25V57.075l-2.256,3.007-2.777-2.739L63,55.577a1.308,1.308,0,0,0,.01-1.468L61.7,52.156l1.334-1.936a1.3,1.3,0,0,0,.01-1.466L61.739,46.8l1.334-1.937a1.306,1.306,0,0,0,.01-1.466l-1.414-2.115.836-2.029a1.332,1.332,0,0,0,.1-.564l-.228-4.513a1.307,1.307,0,0,0-.926-1.183,10.831,10.831,0,1,1,6.3,0Z" transform="translate(-1.155 -2.5)" fill="#1a3668"/>
      <path id="Path_814" data-name="Path 814" d="M38.85,52.245V38.413a1.3,1.3,0,0,0-1.306-1.306h-6.1a1.3,1.3,0,0,0-1.306,1.306v5.065l-3.921-3.972a1.312,1.312,0,0,0-.93-.388,1.144,1.144,0,0,0-.935.394,1.883,1.883,0,0,1-2.642,0,1.57,1.57,0,0,0-.935-.394,1.3,1.3,0,0,0-.927.386L5.437,54.043a1.307,1.307,0,0,0-.379.919V71.132a4.359,4.359,0,0,0,4.353,4.353H36.66a4.359,4.359,0,0,0,4.353-4.353V54.962a1.31,1.31,0,0,0-.379-.921Zm-12.3,20.628H19.38V61.381h7.167ZM38.4,71.132a1.766,1.766,0,0,1-1.742,1.742h-7.5v-12.8a1.3,1.3,0,0,0-1.306-1.306H18.075a1.3,1.3,0,0,0-1.306,1.306v12.8H9.412A1.766,1.766,0,0,1,7.67,71.132V55.5L20.914,42.144a4.592,4.592,0,0,0,4.242,0l5.362,5.431a1.307,1.307,0,0,0,2.235-.918V39.719h3.485V52.783a1.31,1.31,0,0,0,.379.921L38.4,55.5V71.132Z" transform="translate(-5.059 8.079)" fill="#1a3668"/>
    </g>
    <g id="Group_336" data-name="Group 336" transform="translate(18.023 43.967)">
      <path id="Path_815" data-name="Path 815" d="M25.014,39.272a5.036,5.036,0,0,1-1.48,3.557,4.957,4.957,0,0,1-7.066,0,5.036,5.036,0,0,1-1.48-3.557,4.278,4.278,0,0,1,.239-1.48,5,5,0,0,1,9.787,1.48Z" transform="translate(-14.988 -34.259)" fill="#dc1c2e"/>
    </g>
  </g>
</svg>
